<?xml version="1.0" encoding="utf-8"?>
<!-- Generator: Adobe Illustrator 15.0.0, SVG Export Plug-In . SVG Version: 6.00 Build 0)  -->
<!DOCTYPE svg PUBLIC "-//W3C//DTD SVG 1.1//EN" "http://www.w3.org/Graphics/SVG/1.1/DTD/svg11.dtd">
<svg version="1.1" id="Слой_1" xmlns="http://www.w3.org/2000/svg" xmlns:xlink="http://www.w3.org/1999/xlink" x="0px" y="0px"
	 width="74px" height="28px" viewBox="0 0 74 28" enable-background="new 0 0 74 28" xml:space="preserve">
<g>
	<path fill-rule="evenodd" clip-rule="evenodd" fill="#2691D0" d="M13.561,2l-0.953,0.042l-0.867,0.042
		c-5.762,0.59-9.835,3.374-11.524,9.026C-1.04,18.915,3.205,25.41,12.216,26h0.955h16.116l5.59-7.888H14.21
		c-2.903,0.084-4.636-1.855-4.68-3.922c0-2.068,1.907-4.177,4.68-4.008h17.894L32.061,2H13.561L13.561,2z"/>
	<polygon fill-rule="evenodd" clip-rule="evenodd" fill="#2691D0" points="35.18,2 35.18,10.183 39.945,10.141 39.945,4.7 
		43.281,4.7 43.324,2 	"/>
	<polygon fill-rule="evenodd" clip-rule="evenodd" fill="#2691D0" points="44.711,2 44.711,10.183 48.827,10.183 48.827,4.7 
		50.17,4.656 50.17,10.183 54.33,10.141 54.33,4.7 55.891,4.656 55.891,10.183 60.006,10.141 60.006,2 	"/>
	<polygon fill-rule="evenodd" clip-rule="evenodd" fill="#2691D0" points="61.09,2 63.904,9.045 68.8,2 	"/>
	<polygon fill-rule="evenodd" clip-rule="evenodd" fill="#2691D0" points="69.753,2 63.949,10.183 68.149,10.183 74,2 	"/>
	<polygon fill-rule="evenodd" clip-rule="evenodd" fill="#DD2E27" points="60.526,11.236 67.457,11.236 56.409,26 49.435,26 	"/>
	<polygon fill-rule="evenodd" clip-rule="evenodd" fill="#FFFFFF" points="43.281,11.236 50.214,11.236 39.209,26 32.233,26 	"/>
	<polygon fill-rule="evenodd" clip-rule="evenodd" fill="#2691D0" points="51.859,11.236 58.791,11.236 47.744,26 40.769,26 	"/>
</g>
</svg>
